{
    "asset" : {
        "generator" : "Khronos glTF Blender I/O v1.4.40",
        "version" : "2.0"
    },
    "scene" : 0,
    "scenes" : [
        {
            "name" : "Scene",
            "nodes" : [
                0,
                1
            ]
        }
    ],
    "nodes" : [
        {
            "mesh" : 0,
            "name" : "Cube"
        },
        {
            "mesh" : 1,
            "name" : "Cube.001"
        }
    ],
    "materials" : [
        {
            "doubleSided" : true,
            "name" : "Material.001",
            "pbrMetallicRoughness" : {
                "baseColorFactor" : [
                    0.6997476816177368,
                    0.16755585372447968,
                    0.8000000715255737,
                    1
                ],
                "metallicFactor" : 0.5405405163764954,
                "roughnessFactor" : 0.5
            }
        },
        {
            "doubleSided" : true,
            "name" : "Material",
            "pbrMetallicRoughness" : {
                "baseColorFactor" : [
                    0.06839729100465775,
                    0.8000000715255737,
                    0.3399348855018616,
                    1
                ],
                "metallicFactor" : 0.5135135054588318,
                "roughnessFactor" : 0.2918919026851654
            }
        }
    ],
    "meshes" : [
        {
            "name" : "Cube",
            "primitives" : [
                {
                    "attributes" : {
                        "POSITION" : 0,
                        "NORMAL" : 1,
                        "TEXCOORD_0" : 2
                    },
                    "indices" : 3,
                    "material" : 0
                }
            ]
        },
        {
            "name" : "Cube.001",
            "primitives" : [
                {
                    "attributes" : {
                        "POSITION" : 4,
                        "NORMAL" : 5,
                        "TEXCOORD_0" : 6
                    },
                    "indices" : 7,
                    "material" : 1
                }
            ]
        }
    ],
    "accessors" : [
        {
            "bufferView" : 0,
            "componentType" : 5126,
            "count" : 108,
            "max" : [
                1.100000023841858,
                5.163347244262695,
                1.100000023841858
            ],
            "min" : [
                -1.100000023841858,
                0.10925936698913574,
                -1.100000023841858
            ],
            "type" : "VEC3"
        },
        {
            "bufferView" : 1,
            "componentType" : 5126,
            "count" : 108,
            "type" : "VEC3"
        },
        {
            "bufferView" : 2,
            "componentType" : 5126,
            "count" : 108,
            "type" : "VEC2"
        },
        {
            "bufferView" : 3,
            "componentType" : 5123,
            "count" : 156,
            "type" : "SCALAR"
        },
        {
            "bufferView" : 4,
            "componentType" : 5126,
            "count" : 52,
            "max" : [
                1.100000023841858,
                4.7678022384643555,
                1.100000023841858
            ],
            "min" : [
                -1.100000023841858,
                0.10925936698913574,
                -1.100000023841858
            ],
            "type" : "VEC3"
        },
        {
            "bufferView" : 5,
            "componentType" : 5126,
            "count" : 52,
            "type" : "VEC3"
        },
        {
            "bufferView" : 6,
            "componentType" : 5126,
            "count" : 52,
            "type" : "VEC2"
        },
        {
            "bufferView" : 7,
            "componentType" : 5123,
            "count" : 78,
            "type" : "SCALAR"
        }
    ],
    "bufferViews" : [
        {
            "buffer" : 0,
            "byteLength" : 1296,
            "byteOffset" : 0
        },
        {
            "buffer" : 0,
            "byteLength" : 1296,
            "byteOffset" : 1296
        },
        {
            "buffer" : 0,
            "byteLength" : 864,
            "byteOffset" : 2592
        },
        {
            "buffer" : 0,
            "byteLength" : 312,
            "byteOffset" : 3456
        },
        {
            "buffer" : 0,
            "byteLength" : 624,
            "byteOffset" : 3768
        },
        {
            "buffer" : 0,
            "byteLength" : 624,
            "byteOffset" : 4392
        },
        {
            "buffer" : 0,
            "byteLength" : 416,
            "byteOffset" : 5016
        },
        {
            "buffer" : 0,
            "byteLength" : 156,
            "byteOffset" : 5432
        }
    ],
    "buffers" : [
        {
            "byteLength" : 5588,
            "uri" : "data:application/octet-stream;base64,"
        }
    ]
}
